<svg width="125" height="16" viewBox="0 0 125 16" fill="none" xmlns="http://www.w3.org/2000/svg">
<path d="M68.3124 6.6217L65.0497 9.32455L64.8152 9.51882L64.8802 9.81633L65.8187 14.1112L62.8095 11.5922L62.5067 11.3387L62.1899 11.5745L59.0047 13.9463L60.2692 9.73333L60.3585 9.43586L60.1314 9.22399L57.0828 6.37994L61.0085 6.34959L61.3604 6.34688L61.4766 6.01481L62.8867 1.98661L63.9714 6.05353L64.0653 6.40552L64.4291 6.42404L68.3124 6.6217Z" fill="#FFC600" stroke="black"/>
<path d="M40.8615 6.6217L37.5988 9.32455L37.3643 9.51883L37.4293 9.81633L38.3678 14.1112L35.3586 11.5922L35.0557 11.3387L34.739 11.5746L31.5538 13.9463L32.8183 9.73333L32.9076 9.43586L32.6805 9.22399L29.6318 6.37994L33.5576 6.34959L33.9094 6.34688L34.0257 6.01481L35.4358 1.98661L36.5205 6.05353L36.6144 6.40552L36.9782 6.42404L40.8615 6.6217Z" fill="#FFC600" stroke="black"/>
<path d="M13.4126 6.6217L10.1499 9.32455L9.91536 9.51882L9.98037 9.81633L10.9188 14.1112L7.90958 11.5922L7.60677 11.3387L7.29003 11.5745L4.10484 13.9463L5.3693 9.73333L5.45858 9.43586L5.23148 9.22399L2.18285 6.37994L6.10864 6.34959L6.46046 6.34688L6.5767 6.01481L7.98681 1.98661L9.07151 6.05353L9.16539 6.40552L9.52921 6.42404L13.4126 6.6217Z" fill="#FFC600" stroke="black"/>
<path d="M95.7619 6.6217L92.4993 9.32456L92.2648 9.51883L92.3298 9.81633L93.2682 14.1112L90.259 11.5922L89.9562 11.3387L89.6394 11.5745L86.4542 13.9463L87.7187 9.73333L87.808 9.43586L87.5809 9.22399L84.5322 6.37994L88.458 6.34959L88.8099 6.34688L88.9261 6.01481L90.3362 1.98661L91.4209 6.05354L91.5148 6.40552L91.8786 6.42404L95.7619 6.6217Z" fill="#FFC600" stroke="black"/>
<path d="M123.213 6.6217L119.95 9.32455L119.716 9.51882L119.781 9.81633L120.719 14.1112L117.71 11.5922L117.407 11.3387L117.091 11.5745L113.905 13.9463L115.17 9.73333L115.259 9.43586L115.032 9.22399L111.983 6.37994L115.909 6.34959L116.261 6.34688L116.377 6.01481L117.787 1.98661L118.872 6.05353L118.966 6.40552L119.33 6.42404L123.213 6.6217Z" fill="#C1C8CE" stroke="black"/>
</svg>
